# xmcd CD database file
#
# Track frame offsets:
#	150
#	20546
#	37606
#	54212
#	69907
#	82096
#	104178
#	120594
#	149543
#	174206
#	205535
#	223649
#	241701
#	263305
#
# Disc length: 3680 seconds
#
# Revision: 0
# Processed by: cddbd v1.4PL0 Copyright (c) Steve Scherf et al.
# Submitted via: CDex 1.50
#
DISCID=b00e5e0e
DTITLE=Papa Bue's Viking Jazzband - Papa Bue's Viking Jazzband meets Theis Jensen
DYEAR=2003
DGENRE=Jazz
TTITLE0=Way Down Yonder In New Orleans
TTITLE1=Do You Know What It Means To Miss New Orleans
TTITLE2=Bye And Bye
TTITLE3=West End Blues
TTITLE4=Ramblin' Rose
TTITLE5=Tin Roof Blues
TTITLE6=You Rascal You
TTITLE7=Basin Street Blues
TTITLE8=Just A Closer Walk Witk The Thee
TTITLE9=On The Sunny Side Of The Street
TTITLE10=Blueberry Hill
TTITLE11=Confessin'
TTITLE12=Struttin' With Some Barbecue
TTITLE13=What A Wonderfull World
EXTD=YEAR: 2003
EXTT0=
EXTT1=
EXTT2=
EXTT3=
EXTT4=
EXTT5=
EXTT6=
EXTT7=
EXTT8=
EXTT9=
EXTT10=
EXTT11=
EXTT12=
EXTT13=
PLAYORDER=
